<svg width="421.107" height="465.04" viewBox="0 0 315.83 348.78" class="displayed_equation" xmlns="http://www.w3.org/2000/svg">
  <path d="M 156.0625 215.152344 L 29.40625 109.605469 L 177.171875 88.496094 L 303.828125 194.042969" fill="#c0ddf2" />
  <path d="M 1349.53125 3186.159375 L 1349.53125 702.995312 L 2664.492188 389.51875" transform="matrix(.1 0 0 -.1 0 348.78)" fill="none" stroke-width="7.97" stroke-linejoin="round" stroke="#000" stroke-miterlimit="10" />
  <path d="M 134.953125 26.300781 L 132.890625 31.769531 L 134.953125 29.964844 L 137.015625 31.769531" />
  <path d="M 1349.53125 3224.792187 L 1328.90625 3170.104687 L 1349.53125 3188.151562 L 1370.15625 3170.104687 Z M 1349.53125 3224.792187" transform="matrix(.1 0 0 -.1 0 348.78)" fill="none" stroke-width="7.97" stroke="#000" stroke-miterlimit="10" />
  <path d="M 270.214844 310.726563 L 265.363281 307.445313 L 266.644531 309.875 L 264.40625 311.464844" />
  <path d="M 2702.148438 380.534375 L 2653.632813 413.346875 L 2666.445313 389.05 L 2644.0625 373.151562 Z M 2702.148438 380.534375" transform="matrix(.1 0 0 -.1 0 348.78)" fill="none" stroke-width="7.985" stroke="#000" stroke-miterlimit="10" />
  <path d="M137.085938 19.160156L136.71875 19.160156C136.359375 20.097656 136.128906 20.265625 135.335938 20.265625L133.617188 20.265625 133.617188 20.230469 137.53125 16.105469 137.578125 15.804688 133.492188 15.804688 133.082031 17.566406 133.425781 17.566406C133.648438 16.820313 133.773438 16.617188 134.488281 16.617188L136.292969 16.617188 136.292969 16.648438 132.390625 20.757813 132.34375 21.078125 136.585938 21.078125 137.085938 19.160156M278.300781 308.953125C278.164063 308.0625 278.089844 307.703125 277.84375 307.28125L277.675781 307.28125 276.089844 307.402344 276.089844 307.726563C276.089844 307.726563 276.324219 307.703125 276.480469 307.703125 277.164063 307.703125 277.21875 308.25 277.296875 308.753906L277.953125 312.679688C277.640625 313.160156 276.839844 314.21875 276.628906 314.21875 276.382813 314.21875 276.257813 313.628906 275.835938 313.628906 275.578125 313.628906 275.398438 313.773438 275.398438 314.109375 275.398438 314.519531 275.789063 314.832031 276.257813 314.832031 277.105469 314.832031 277.886719 313.570313 278.722656 312.414063 279.304688 311.609375 279.941406 310.648438 280.542969 309.589844 280.898438 308.988281 281.03125 308.484375 281.03125 308.050781 281.03125 307.570313 280.742188 307.203125 280.332031 307.203125 280.007813 307.203125 279.839844 307.402344 279.839844 307.636719 279.839844 308.0625 280.386719 308.375 280.386719 308.664063 280.386719 308.929688 280.285156 309.199219 280.019531 309.632813L278.734375 311.699219 278.667969 311.699219 278.570313 310.582031 278.300781 308.953125" />
  <path d="M 1349.53125 702.995312 L 306.5625 206.315625" transform="matrix(.1 0 0 -.1 0 348.78)" fill="none" stroke-width="7.97" stroke-linejoin="round" stroke="#000" stroke-miterlimit="10" />
  <path d="M 27.160156 329.816406 L 33 329.324219 L 30.476563 328.234375 L 31.21875 325.589844" />
  <path d="M 271.601563 189.635937 L 330 194.557812 L 304.765625 205.45625 L 312.1875 231.901562 Z M 271.601563 189.635937" transform="matrix(.1 0 0 -.1 0 348.78)" fill="none" stroke-width="7.989" stroke="#000" stroke-miterlimit="10" />
  <path d="M 19.214844 329.65625 L 19.179688 329.65625 L 19.046875 329.085938 C 18.890625 328.484375 18.679688 327.992188 18.410156 327.679688 L 18.242188 327.679688 L 16.691406 327.859375 L 16.691406 328.195313 C 16.691406 328.195313 16.859375 328.160156 17.039063 328.160156 C 17.773438 328.148438 17.964844 328.449219 18.265625 329.386719 L 18.578125 330.402344 L 17.773438 331.574219 C 17.339844 332.199219 17.140625 332.210938 17.09375 332.210938 C 16.90625 332.210938 16.636719 332.066406 16.390625 332.066406 C 16.125 332.066406 15.957031 332.3125 15.957031 332.53125 C 15.957031 332.8125 16.125 333.078125 16.601563 333.078125 C 17.273438 333.078125 17.640625 332.554688 18 331.976563 L 18.710938 330.816406 L 18.757813 330.816406 L 19.035156 331.941406 C 19.191406 332.667969 19.4375 333.089844 19.949219 333.089844 C 20.710938 333.089844 21.179688 332.332031 21.5 331.84375 L 21.265625 331.664063 C 20.964844 332.066406 20.753906 332.289063 20.464844 332.289063 C 20.117188 332.289063 19.894531 331.875 19.582031 330.847656 L 19.347656 330.089844 L 20.027344 329.007813 C 20.21875 328.695313 20.375 328.539063 20.632813 328.539063 C 20.777344 328.539063 21.03125 328.652344 21.210938 328.652344 C 21.511719 328.652344 21.726563 328.394531 21.726563 328.125 C 21.726563 327.8125 21.589844 327.636719 21.167969 327.636719 C 20.507813 327.636719 20.0625 328.183594 19.761719 328.71875 L 19.214844 329.65625" />
  <path d="M 1349.53125 702.995312 L 1836.523438 1701.432812" transform="matrix(.1 0 0 -.1 0 348.78)" fill="none" stroke-width="7.97" stroke-linejoin="round" stroke="#000" stroke-miterlimit="10" />
  <path d="M 185.347656 175.152344 L 181.085938 179.175781 L 183.738281 178.457031 L 184.804688 180.988281" />
  <path d="M 1853.476563 1736.276562 L 1810.859375 1696.042187 L 1837.382813 1703.229687 L 1848.046875 1677.917187 Z M 1853.476563 1736.276562" transform="matrix(.1 0 0 -.1 0 348.78)" fill="none" stroke-width="7.994" stroke="#000" stroke-miterlimit="10" />
  <path d="M170.386719 222.105469L170.386719 221.914063 168.757813 220.375 168.570313 220.597656 168.914063 221C169.070313 221.1875 169.171875 221.277344 169.171875 221.433594 169.171875 221.558594 169.082031 221.578125 168.914063 221.578125L165.492188 221.578125 165.492188 222.105469 170.386719 222.105469M166.296875 226.890625L166.867188 224.46875 166.621094 224.46875 165.070313 224.59375 165.070313 224.894531C165.070313 224.894531 165.292969 224.871094 165.414063 224.871094 165.726563 224.871094 165.78125 224.992188 165.78125 225.207031 165.78125 225.40625 165.726563 225.695313 165.683594 225.898438L164.855469 229.78125 165.804688 229.78125 166.140625 228.21875C166.320313 227.773438 167.320313 225.375 167.859375 225.375 167.890625 225.375 168.003906 225.785156 168.359375 225.785156 168.648438 225.785156 168.953125 225.574219 168.953125 225.082031 168.953125 224.648438 168.683594 224.4375 168.328125 224.4375 167.433594 224.4375 166.765625 226.140625 166.40625 226.890625L166.296875 226.890625M173.347656 229.601563C173.347656 227.925781 172.550781 226.964844 171.476563 226.964844 170.320313 226.964844 169.582031 227.972656 169.582031 229.585938 169.582031 231.035156 170.128906 232.28125 171.460938 232.28125 172.777344 232.28125 173.347656 230.980469 173.347656 229.601563zM172.511719 229.65625C172.511719 231.175781 172.132813 231.945313 171.460938 231.945313 170.789063 231.945313 170.40625 231.1875 170.40625 229.625 170.40625 228.03125 170.773438 227.285156 171.460938 227.285156 172.15625 227.285156 172.511719 228.023438 172.511719 229.65625M191.316406 169.25L191.25 169.585938C191.996094 169.585938 192.230469 169.707031 192.109375 170.367188L191.117188 175.164063C190.9375 176.101563 190.769531 176.246094 189.921875 176.246094L189.855469 176.578125 192.957031 176.578125 193.023438 176.246094C192.121094 176.246094 191.917969 176.121094 192.109375 175.207031L192.496094 173.300781C192.644531 173.34375 192.945313 173.390625 193.167969 173.390625 194.640625 173.390625 196.4375 172.722656 196.4375 170.789063 196.4375 169.617188 195.398438 169.25 194.027344 169.25zM193.222656 169.730469C193.46875 169.707031 193.59375 169.683594 193.828125 169.683594 194.953125 169.683594 195.355469 170.1875 195.355469 170.925781 195.355469 172.351563 194.40625 172.933594 193.121094 172.933594 192.867188 172.933594 192.710938 172.910156 192.589844 172.886719L193.222656 169.730469M200.746094 176.398438C200.746094 174.722656 199.953125 173.765625 198.878906 173.765625 197.722656 173.765625 196.980469 174.769531 196.980469 176.386719 196.980469 177.835938 197.527344 179.082031 198.859375 179.082031 200.179688 179.082031 200.746094 177.78125 200.746094 176.398438zM199.914063 176.453125C199.914063 177.976563 199.53125 178.746094 198.859375 178.746094 198.191406 178.746094 197.808594 177.988281 197.808594 176.425781 197.808594 174.832031 198.175781 174.085938 198.859375 174.085938 199.554688 174.085938 199.914063 174.824219 199.914063 176.453125" />
  <path d="M 1349.53125 702.995312 L 983.75 2170.104687" transform="matrix(.1 0 0 -.1 0 348.78)" fill="none" stroke-width="7.97" stroke-linejoin="round" stroke="#000" stroke-miterlimit="10" />
  <path d="M 97.4375 128.011719 L 96.757813 133.832031 L 98.328125 131.574219 L 100.773438 132.828125" />
  <path d="M 974.375 2207.682812 L 967.578125 2149.479687 L 983.28125 2172.057812 L 1007.734375 2159.51875 Z M 974.375 2207.682812" transform="matrix(.1 0 0 -.1 0 348.78)" fill="none" stroke-width="7.987" stroke="#000" stroke-miterlimit="10" />
  <path d="M113.1875 199.703125L113.1875 199.515625 111.558594 197.976563 111.371094 198.199219 111.714844 198.601563C111.871094 198.789063 111.972656 198.878906 111.972656 199.035156 111.972656 199.15625 111.882813 199.179688 111.714844 199.179688L108.289063 199.179688 108.289063 199.703125 113.1875 199.703125M109.097656 204.492188L109.664063 202.070313 109.421875 202.070313 107.867188 202.191406 107.867188 202.492188C107.867188 202.492188 108.09375 202.472656 108.214844 202.472656 108.527344 202.472656 108.582031 202.59375 108.582031 202.808594 108.582031 203.007813 108.527344 203.296875 108.484375 203.496094L107.65625 207.378906 108.605469 207.378906 108.941406 205.816406C109.117188 205.371094 110.121094 202.972656 110.65625 202.972656 110.691406 202.972656 110.804688 203.386719 111.160156 203.386719 111.449219 203.386719 111.753906 203.175781 111.753906 202.683594 111.753906 202.25 111.484375 202.035156 111.128906 202.035156 110.234375 202.035156 109.5625 203.742188 109.207031 204.492188L109.097656 204.492188M87.816406 123.25L87.75 123.585938C88.496094 123.585938 88.730469 123.707031 88.609375 124.367188L87.617188 129.164063C87.4375 130.101563 87.269531 130.246094 86.421875 130.246094L86.355469 130.578125 89.457031 130.578125 89.523438 130.246094C88.621094 130.246094 88.417969 130.121094 88.609375 129.207031L89 127.300781C89.144531 127.34375 89.445313 127.390625 89.667969 127.390625 91.140625 127.390625 92.9375 126.722656 92.9375 124.789063 92.9375 123.617188 91.898438 123.25 90.527344 123.25zM89.722656 123.730469C89.96875 123.707031 90.09375 123.683594 90.328125 123.683594 91.453125 123.683594 91.855469 124.1875 91.855469 124.925781 91.855469 126.351563 90.90625 126.933594 89.625 126.933594 89.367188 126.933594 89.210938 126.910156 89.085938 126.886719L89.722656 123.730469M99.707031 126.878906C99.707031 125.46875 98.566406 124.328125 97.15625 124.328125 95.746094 124.328125 94.605469 125.46875 94.605469 126.878906 94.605469 128.289063 95.746094 129.429688 97.15625 129.429688 98.566406 129.429688 99.707031 128.289063 99.707031 126.878906zM99.707031 126.878906" />
  <path d="M 1858.59375 1746.70625 L 1015.742188 2195.495312" transform="matrix(.1 0 0 -.1 0 348.78)" fill="none" stroke-width="7.97" stroke-linejoin="round" stroke="#e14b3b" stroke-miterlimit="10" />
  <path d="M 98.160156 127.414063 L 102.019531 131.808594 L 101.394531 129.136719 L 103.960938 128.160156" fill="#e14b3b" />
  <path d="M 981.601563 2213.659375 L 1020.195313 2169.714062 L 1013.945313 2196.432812 L 1039.609375 2206.198437 Z M 981.601563 2213.659375" transform="matrix(.1 0 0 -.1 0 348.78)" fill="none" stroke-width="7.978" stroke="#e14b3b" stroke-miterlimit="10" />
  <path d="M136.289063 131.445313L136.382813 131.277344 135.671875 129.148438 135.394531 129.261719 135.507813 129.777344C135.558594 130.019531 135.605469 130.144531 135.53125 130.285156 135.46875 130.390625 135.378906 130.371094 135.230469 130.292969L132.179688 128.699219 131.929688 129.164063 136.289063 131.445313M130.386719 133.742188L132.050781 131.851563 131.832031 131.738281 130.394531 131.128906 130.246094 131.394531C130.246094 131.394531 130.457031 131.476563 130.566406 131.535156 130.84375 131.683594 130.839844 131.816406 130.734375 132.003906 130.640625 132.183594 130.449219 132.414063 130.3125 132.574219L127.71875 135.644531 128.5625 136.089844 129.609375 134.851563C129.980469 134.539063 132.023438 132.871094 132.503906 133.121094 132.53125 133.136719 132.433594 133.554688 132.753906 133.722656 133.011719 133.855469 133.382813 133.808594 133.617188 133.371094 133.824219 132.984375 133.6875 132.671875 133.371094 132.503906 132.574219 132.089844 131.160156 133.296875 130.484375 133.796875L130.386719 133.742188M141.640625 140.164063L142.003906 139.488281 136.082031 136.390625 135.71875 137.066406 141.640625 140.164063M152.089844 139.847656L152.179688 139.679688 151.46875 137.550781 151.195313 137.660156 151.308594 138.179688C151.359375 138.417969 151.40625 138.546875 151.328125 138.683594 151.269531 138.792969 151.179688 138.773438 151.03125 138.695313L147.980469 137.097656 147.730469 137.566406 152.089844 139.847656M146.285156 142.242188L147.953125 140.351563 147.734375 140.238281 146.292969 139.628906 146.148438 139.894531C146.148438 139.894531 146.359375 139.976563 146.46875 140.035156 146.746094 140.183594 146.738281 140.316406 146.636719 140.503906 146.539063 140.683594 146.351563 140.914063 146.214844 141.074219L143.617188 144.144531 144.464844 144.589844 145.507813 143.351563C145.882813 143.039063 147.925781 141.371094 148.402344 141.621094 148.433594 141.636719 148.335938 142.054688 148.652344 142.222656 148.910156 142.355469 149.28125 142.308594 149.515625 141.871094 149.726563 141.484375 149.589844 141.171875 149.269531 141.003906 148.476563 140.589844 147.0625 141.796875 146.382813 142.296875L146.285156 142.242188M151.074219 147.855469C151.863281 146.378906 151.609375 145.15625 150.660156 144.648438 149.644531 144.105469 148.519531 144.644531 147.757813 146.070313 147.078125 147.347656 146.96875 148.703125 148.144531 149.332031 149.308594 149.953125 150.425781 149.070313 151.074219 147.855469zM150.3125 147.511719C149.597656 148.851563 148.894531 149.351563 148.304688 149.039063 147.714844 148.722656 147.730469 147.875 148.46875 146.492188 149.21875 145.089844 149.890625 144.601563 150.496094 144.925781 151.109375 145.253906 151.078125 146.074219 150.3125 147.511719" fill="#e14b3b" />
  <path d="M 1908.554688 2129.3625 L 1962.539063 2098.190625 L 1931.367188 2044.167187" transform="matrix(.1 0 0 -.1 0 348.78)" fill="none" stroke-width="7.97" stroke-linejoin="round" stroke="#55a4e0" stroke-miterlimit="10" />
  <path d="M 1877.265625 2075.104687 L 2168.828125 2580.14375" transform="matrix(.1 0 0 -.1 0 348.78)" fill="none" stroke-width="7.97" stroke-linejoin="round" stroke="#000" stroke-miterlimit="10" />
  <path d="M 218.820313 87.410156 L 214.285156 91.125 L 216.984375 90.59375 L 217.871094 93.195313" />
  <path d="M 2188.203125 2613.698437 L 2142.851563 2576.55 L 2169.84375 2581.8625 L 2178.710938 2555.846875 Z M 2188.203125 2613.698437" transform="matrix(.1 0 0 -.1 0 348.78)" fill="none" stroke-width="7.995" stroke="#000" stroke-miterlimit="10" />
  <path d="M223.1875 74.503906L223.1875 74.3125 221.558594 72.773438 221.371094 73 221.714844 73.398438C221.871094 73.589844 221.972656 73.679688 221.972656 73.835938 221.972656 73.957031 221.882813 73.980469 221.714844 73.980469L218.289063 73.980469 218.289063 74.503906 223.1875 74.503906M222.011719 80.929688C221.84375 81.140625 221.566406 81.511719 221.1875 81.511719 221.03125 81.511719 220.976563 81.421875 220.976563 81.300781 220.976563 81.164063 220.996094 81.03125 220.996094 81.03125L221.632813 78.453125C221.667969 78.296875 221.734375 77.917969 221.734375 77.628906 221.734375 77.226563 221.566406 76.835938 220.996094 76.835938 219.679688 76.835938 218.734375 78.453125 218.265625 79.289063L218.175781 79.289063 218.734375 76.867188 218.488281 76.867188 216.9375 76.992188 216.9375 77.292969C216.9375 77.292969 217.160156 77.269531 217.304688 77.269531 217.5625 77.269531 217.660156 77.382813 217.660156 77.570313 217.660156 77.738281 217.628906 77.941406 217.628906 77.941406L216.726563 82.179688 217.640625 82.179688 218.039063 80.417969C218.398438 79.648438 219.625 77.640625 220.4375 77.640625 220.695313 77.640625 220.773438 77.828125 220.773438 78.085938 220.773438 78.308594 220.695313 78.621094 220.695313 78.621094L220.039063 81.199219C220.027344 81.253906 219.980469 81.453125 219.980469 81.632813 219.980469 81.96875 220.148438 82.289063 220.707031 82.289063 221.511719 82.289063 221.957031 81.511719 222.246094 81.097656L222.011719 80.929688" />
</svg>